# Blender 4.0.0
# www.blender.org
mtllib axis.mtl
o Cube
v 0.100000 0.100000 0.000000
v 0.100000 -0.100000 0.000000
v 0.100000 0.100000 2.000000
v 0.100000 -0.100000 2.000000
v -0.100000 0.100000 0.000000
v -0.100000 -0.100000 0.000000
v -0.100000 0.100000 2.000000
v -0.100000 -0.100000 2.000000
vn -0.0000 1.0000 -0.0000
vn -0.0000 -0.0000 1.0000
vn -1.0000 -0.0000 -0.0000
vn -0.0000 -1.0000 -0.0000
vn 1.0000 -0.0000 -0.0000
vn -0.0000 -0.0000 -1.0000
vt 0.625000 0.500000
vt 0.875000 0.500000
vt 0.875000 0.750000
vt 0.625000 0.750000
vt 0.375000 0.750000
vt 0.625000 1.000000
vt 0.375000 1.000000
vt 0.375000 0.000000
vt 0.625000 0.000000
vt 0.625000 0.250000
vt 0.375000 0.250000
vt 0.125000 0.500000
vt 0.375000 0.500000
vt 0.125000 0.750000
s 0
usemtl Material
f 1/1/1 5/2/1 7/3/1 3/4/1
f 4/5/2 3/4/2 7/6/2 8/7/2
f 8/8/3 7/9/3 5/10/3 6/11/3
f 6/12/4 2/13/4 4/5/4 8/14/4
f 2/13/5 1/1/5 3/4/5 4/5/5
f 6/11/6 5/10/6 1/1/6 2/13/6
o Cube.001
v 0.100000 1.900000 0.000000
v 0.100000 -0.100000 0.000000
v 0.100000 1.900000 0.200000
v 0.100000 -0.100000 0.200000
v -0.100000 1.900000 0.000000
v -0.100000 -0.100000 0.000000
v -0.100000 1.900000 0.200000
v -0.100000 -0.100000 0.200000
vn -0.0000 1.0000 -0.0000
vn -0.0000 -0.0000 1.0000
vn -1.0000 -0.0000 -0.0000
vn -0.0000 -1.0000 -0.0000
vn 1.0000 -0.0000 -0.0000
vn -0.0000 -0.0000 -1.0000
vt 0.625000 0.500000
vt 0.875000 0.500000
vt 0.875000 0.750000
vt 0.625000 0.750000
vt 0.375000 0.750000
vt 0.625000 1.000000
vt 0.375000 1.000000
vt 0.375000 0.000000
vt 0.625000 0.000000
vt 0.625000 0.250000
vt 0.375000 0.250000
vt 0.125000 0.500000
vt 0.375000 0.500000
vt 0.125000 0.750000
s 0
usemtl Material.001
f 9/15/7 13/16/7 15/17/7 11/18/7
f 12/19/8 11/18/8 15/20/8 16/21/8
f 16/22/9 15/23/9 13/24/9 14/25/9
f 14/26/10 10/27/10 12/19/10 16/28/10
f 10/27/11 9/15/11 11/18/11 12/19/11
f 14/25/12 13/24/12 9/15/12 10/27/12
o Cube.002
v 0.100000 0.100000 0.000000
v 0.100000 -0.100000 0.000000
v 0.100000 0.100000 0.200000
v 0.100000 -0.100000 0.200000
v -1.900000 0.100000 0.000000
v -1.900000 -0.100000 0.000000
v -1.900000 0.100000 0.200000
v -1.900000 -0.100000 0.200000
vn -0.0000 1.0000 -0.0000
vn -0.0000 -0.0000 1.0000
vn -1.0000 -0.0000 -0.0000
vn -0.0000 -1.0000 -0.0000
vn 1.0000 -0.0000 -0.0000
vn -0.0000 -0.0000 -1.0000
vt 0.625000 0.500000
vt 0.875000 0.500000
vt 0.875000 0.750000
vt 0.625000 0.750000
vt 0.375000 0.750000
vt 0.625000 1.000000
vt 0.375000 1.000000
vt 0.375000 0.000000
vt 0.625000 0.000000
vt 0.625000 0.250000
vt 0.375000 0.250000
vt 0.125000 0.500000
vt 0.375000 0.500000
vt 0.125000 0.750000
s 0
usemtl Material.002
f 17/29/13 21/30/13 23/31/13 19/32/13
f 20/33/14 19/32/14 23/34/14 24/35/14
f 24/36/15 23/37/15 21/38/15 22/39/15
f 22/40/16 18/41/16 20/33/16 24/42/16
f 18/41/17 17/29/17 19/32/17 20/33/17
f 22/39/18 21/38/18 17/29/18 18/41/18
o Cone
v 0.000000 1.900000 -0.050000
v 0.029264 1.900000 -0.047118
v 0.057403 1.900000 -0.038582
v 0.083336 1.900000 -0.024720
v 0.106066 1.900000 -0.006066
v 0.124720 1.900000 0.016664
v 0.138582 1.900000 0.042597
v 0.147118 1.900000 0.070736
v 0.150000 1.900000 0.100000
v 0.147118 1.900000 0.129264
v 0.138582 1.900000 0.157403
v 0.124720 1.900000 0.183336
v 0.106066 1.900000 0.206066
v 0.083336 1.900000 0.224720
v 0.057403 1.900000 0.238582
v 0.029264 1.900000 0.247118
v 0.000000 1.900000 0.250000
v -0.029264 1.900000 0.247118
v -0.057403 1.900000 0.238582
v -0.083336 1.900000 0.224720
v -0.106066 1.900000 0.206066
v -0.124720 1.900000 0.183336
v -0.138582 1.900000 0.157403
v -0.147118 1.900000 0.129264
v -0.150000 1.900000 0.100000
v -0.147118 1.900000 0.070736
v -0.138582 1.900000 0.042597
v -0.124720 1.900000 0.016664
v -0.106066 1.900000 -0.006066
v -0.083336 1.900000 -0.024720
v -0.057403 1.900000 -0.038582
v -0.029264 1.900000 -0.047118
v 0.000000 2.200000 0.100000
vn 0.0878 0.4455 -0.8910
vn 0.2599 0.4455 -0.8567
vn 0.4220 0.4455 -0.7896
vn 0.5680 0.4455 -0.6921
vn 0.6921 0.4455 -0.5680
vn 0.7896 0.4455 -0.4220
vn 0.8567 0.4455 -0.2599
vn 0.8910 0.4455 -0.0878
vn 0.8910 0.4455 0.0878
vn 0.8567 0.4455 0.2599
vn 0.7896 0.4455 0.4220
vn 0.6921 0.4455 0.5680
vn 0.5680 0.4455 0.6921
vn 0.4220 0.4455 0.7896
vn 0.2599 0.4455 0.8567
vn 0.0878 0.4455 0.8910
vn -0.0878 0.4455 0.8910
vn -0.2599 0.4455 0.8567
vn -0.4220 0.4455 0.7896
vn -0.5680 0.4455 0.6921
vn -0.6921 0.4455 0.5680
vn -0.7896 0.4455 0.4220
vn -0.8567 0.4455 0.2599
vn -0.8910 0.4455 0.0878
vn -0.8910 0.4455 -0.0878
vn -0.8567 0.4455 -0.2599
vn -0.7896 0.4455 -0.4220
vn -0.6921 0.4455 -0.5680
vn -0.5680 0.4455 -0.6921
vn -0.4220 0.4455 -0.7896
vn -0.0000 -1.0000 -0.0000
vn -0.2599 0.4455 -0.8567
vn -0.0878 0.4455 -0.8910
vt 0.250000 0.490000
vt 0.250000 0.250000
vt 0.296822 0.485388
vt 0.341844 0.471731
vt 0.383337 0.449553
vt 0.419706 0.419706
vt 0.449553 0.383337
vt 0.471731 0.341844
vt 0.485388 0.296822
vt 0.490000 0.250000
vt 0.485388 0.203178
vt 0.471731 0.158156
vt 0.449553 0.116663
vt 0.419706 0.080294
vt 0.383337 0.050447
vt 0.341844 0.028269
vt 0.296822 0.014612
vt 0.250000 0.010000
vt 0.203178 0.014612
vt 0.158156 0.028269
vt 0.116663 0.050447
vt 0.080294 0.080294
vt 0.050447 0.116663
vt 0.028269 0.158156
vt 0.014612 0.203178
vt 0.010000 0.250000
vt 0.014612 0.296822
vt 0.028269 0.341844
vt 0.050447 0.383337
vt 0.080294 0.419706
vt 0.116663 0.449553
vt 0.158156 0.471731
vt 0.750000 0.490000
vt 0.796822 0.485388
vt 0.841844 0.471731
vt 0.883337 0.449553
vt 0.919706 0.419706
vt 0.949553 0.383337
vt 0.971731 0.341844
vt 0.985388 0.296822
vt 0.990000 0.250000
vt 0.985388 0.203178
vt 0.971731 0.158156
vt 0.949553 0.116663
vt 0.919706 0.080294
vt 0.883337 0.050447
vt 0.841844 0.028269
vt 0.796822 0.014612
vt 0.750000 0.010000
vt 0.703178 0.014612
vt 0.658156 0.028269
vt 0.616663 0.050447
vt 0.580294 0.080294
vt 0.550447 0.116663
vt 0.528269 0.158156
vt 0.514612 0.203178
vt 0.510000 0.250000
vt 0.514612 0.296822
vt 0.528269 0.341844
vt 0.550447 0.383337
vt 0.580294 0.419706
vt 0.616663 0.449553
vt 0.658156 0.471731
vt 0.703178 0.485388
vt 0.203178 0.485388
s 0
f 25/43/19 57/44/19 26/45/19
f 26/45/20 57/44/20 27/46/20
f 27/46/21 57/44/21 28/47/21
f 28/47/22 57/44/22 29/48/22
f 29/48/23 57/44/23 30/49/23
f 30/49/24 57/44/24 31/50/24
f 31/50/25 57/44/25 32/51/25
f 32/51/26 57/44/26 33/52/26
f 33/52/27 57/44/27 34/53/27
f 34/53/28 57/44/28 35/54/28
f 35/54/29 57/44/29 36/55/29
f 36/55/30 57/44/30 37/56/30
f 37/56/31 57/44/31 38/57/31
f 38/57/32 57/44/32 39/58/32
f 39/58/33 57/44/33 40/59/33
f 40/59/34 57/44/34 41/60/34
f 41/60/35 57/44/35 42/61/35
f 42/61/36 57/44/36 43/62/36
f 43/62/37 57/44/37 44/63/37
f 44/63/38 57/44/38 45/64/38
f 45/64/39 57/44/39 46/65/39
f 46/65/40 57/44/40 47/66/40
f 47/66/41 57/44/41 48/67/41
f 48/67/42 57/44/42 49/68/42
f 49/68/43 57/44/43 50/69/43
f 50/69/44 57/44/44 51/70/44
f 51/70/45 57/44/45 52/71/45
f 52/71/46 57/44/46 53/72/46
f 53/72/47 57/44/47 54/73/47
f 54/73/48 57/44/48 55/74/48
f 25/75/49 26/76/49 27/77/49 28/78/49 29/79/49 30/80/49 31/81/49 32/82/49 33/83/49 34/84/49 35/85/49 36/86/49 37/87/49 38/88/49 39/89/49 40/90/49 41/91/49 42/92/49 43/93/49 44/94/49 45/95/49 46/96/49 47/97/49 48/98/49 49/99/49 50/100/49 51/101/49 52/102/49 53/103/49 54/104/49 55/105/49 56/106/49
f 55/74/50 57/44/50 56/107/50
f 56/107/51 57/44/51 25/43/51
o Cone.001
v 0.000000 0.150000 2.000000
v 0.029264 0.147118 2.000000
v 0.057403 0.138582 2.000000
v 0.083336 0.124720 2.000000
v 0.106066 0.106066 2.000000
v 0.124720 0.083336 2.000000
v 0.138582 0.057403 2.000000
v 0.147118 0.029264 2.000000
v 0.150000 0.000000 2.000000
v 0.147118 -0.029264 2.000000
v 0.138582 -0.057403 2.000000
v 0.124720 -0.083336 2.000000
v 0.106066 -0.106066 2.000000
v 0.083336 -0.124720 2.000000
v 0.057403 -0.138582 2.000000
v 0.029264 -0.147118 2.000000
v 0.000000 -0.150000 2.000000
v -0.029264 -0.147118 2.000000
v -0.057403 -0.138582 2.000000
v -0.083336 -0.124720 2.000000
v -0.106066 -0.106066 2.000000
v -0.124720 -0.083336 2.000000
v -0.138582 -0.057403 2.000000
v -0.147118 -0.029264 2.000000
v -0.150000 0.000000 2.000000
v -0.147118 0.029264 2.000000
v -0.138582 0.057403 2.000000
v -0.124720 0.083336 2.000000
v -0.106066 0.106066 2.000000
v -0.083336 0.124720 2.000000
v -0.057403 0.138582 2.000000
v -0.029264 0.147118 2.000000
v 0.000000 -0.000000 2.300000
vn 0.0878 0.8910 0.4455
vn 0.2599 0.8567 0.4455
vn 0.4220 0.7896 0.4455
vn 0.5680 0.6921 0.4455
vn 0.6921 0.5680 0.4455
vn 0.7896 0.4220 0.4455
vn 0.8567 0.2599 0.4455
vn 0.8910 0.0878 0.4455
vn 0.8910 -0.0878 0.4455
vn 0.8567 -0.2599 0.4455
vn 0.7896 -0.4220 0.4455
vn 0.6921 -0.5680 0.4455
vn 0.5680 -0.6921 0.4455
vn 0.4220 -0.7896 0.4455
vn 0.2599 -0.8567 0.4455
vn 0.0878 -0.8910 0.4455
vn -0.0878 -0.8910 0.4455
vn -0.2599 -0.8567 0.4455
vn -0.4220 -0.7896 0.4455
vn -0.5680 -0.6921 0.4455
vn -0.6921 -0.5680 0.4455
vn -0.7896 -0.4220 0.4455
vn -0.8567 -0.2599 0.4455
vn -0.8910 -0.0878 0.4455
vn -0.8910 0.0878 0.4455
vn -0.8567 0.2599 0.4455
vn -0.7896 0.4220 0.4455
vn -0.6921 0.5680 0.4455
vn -0.5680 0.6921 0.4455
vn -0.4220 0.7896 0.4455
vn -0.0000 -0.0000 -1.0000
vn -0.2599 0.8567 0.4455
vn -0.0878 0.8910 0.4455
vt 0.250000 0.490000
vt 0.250000 0.250000
vt 0.296822 0.485388
vt 0.341844 0.471731
vt 0.383337 0.449553
vt 0.419706 0.419706
vt 0.449553 0.383337
vt 0.471731 0.341844
vt 0.485388 0.296822
vt 0.490000 0.250000
vt 0.485388 0.203178
vt 0.471731 0.158156
vt 0.449553 0.116663
vt 0.419706 0.080294
vt 0.383337 0.050447
vt 0.341844 0.028269
vt 0.296822 0.014612
vt 0.250000 0.010000
vt 0.203178 0.014612
vt 0.158156 0.028269
vt 0.116663 0.050447
vt 0.080294 0.080294
vt 0.050447 0.116663
vt 0.028269 0.158156
vt 0.014612 0.203178
vt 0.010000 0.250000
vt 0.014612 0.296822
vt 0.028269 0.341844
vt 0.050447 0.383337
vt 0.080294 0.419706
vt 0.116663 0.449553
vt 0.158156 0.471731
vt 0.750000 0.490000
vt 0.796822 0.485388
vt 0.841844 0.471731
vt 0.883337 0.449553
vt 0.919706 0.419706
vt 0.949553 0.383337
vt 0.971731 0.341844
vt 0.985388 0.296822
vt 0.990000 0.250000
vt 0.985388 0.203178
vt 0.971731 0.158156
vt 0.949553 0.116663
vt 0.919706 0.080294
vt 0.883337 0.050447
vt 0.841844 0.028269
vt 0.796822 0.014612
vt 0.750000 0.010000
vt 0.703178 0.014612
vt 0.658156 0.028269
vt 0.616663 0.050447
vt 0.580294 0.080294
vt 0.550447 0.116663
vt 0.528269 0.158156
vt 0.514612 0.203178
vt 0.510000 0.250000
vt 0.514612 0.296822
vt 0.528269 0.341844
vt 0.550447 0.383337
vt 0.580294 0.419706
vt 0.616663 0.449553
vt 0.658156 0.471731
vt 0.703178 0.485388
vt 0.203178 0.485388
s 0
f 58/108/52 90/109/52 59/110/52
f 59/110/53 90/109/53 60/111/53
f 60/111/54 90/109/54 61/112/54
f 61/112/55 90/109/55 62/113/55
f 62/113/56 90/109/56 63/114/56
f 63/114/57 90/109/57 64/115/57
f 64/115/58 90/109/58 65/116/58
f 65/116/59 90/109/59 66/117/59
f 66/117/60 90/109/60 67/118/60
f 67/118/61 90/109/61 68/119/61
f 68/119/62 90/109/62 69/120/62
f 69/120/63 90/109/63 70/121/63
f 70/121/64 90/109/64 71/122/64
f 71/122/65 90/109/65 72/123/65
f 72/123/66 90/109/66 73/124/66
f 73/124/67 90/109/67 74/125/67
f 74/125/68 90/109/68 75/126/68
f 75/126/69 90/109/69 76/127/69
f 76/127/70 90/109/70 77/128/70
f 77/128/71 90/109/71 78/129/71
f 78/129/72 90/109/72 79/130/72
f 79/130/73 90/109/73 80/131/73
f 80/131/74 90/109/74 81/132/74
f 81/132/75 90/109/75 82/133/75
f 82/133/76 90/109/76 83/134/76
f 83/134/77 90/109/77 84/135/77
f 84/135/78 90/109/78 85/136/78
f 85/136/79 90/109/79 86/137/79
f 86/137/80 90/109/80 87/138/80
f 87/138/81 90/109/81 88/139/81
f 58/140/82 59/141/82 60/142/82 61/143/82 62/144/82 63/145/82 64/146/82 65/147/82 66/148/82 67/149/82 68/150/82 69/151/82 70/152/82 71/153/82 72/154/82 73/155/82 74/156/82 75/157/82 76/158/82 77/159/82 78/160/82 79/161/82 80/162/82 81/163/82 82/164/82 83/165/82 84/166/82 85/167/82 86/168/82 87/169/82 88/170/82 89/171/82
f 88/139/83 90/109/83 89/172/83
f 89/172/84 90/109/84 58/108/84
o Cone.002
v -1.900000 0.000000 -0.050000
v -1.900000 0.029264 -0.047118
v -1.900000 0.057403 -0.038582
v -1.900000 0.083336 -0.024720
v -1.900000 0.106066 -0.006066
v -1.900000 0.124720 0.016664
v -1.900000 0.138582 0.042597
v -1.900000 0.147118 0.070736
v -1.900000 0.150000 0.100000
v -1.900000 0.147118 0.129264
v -1.900000 0.138582 0.157403
v -1.900000 0.124720 0.183336
v -1.900000 0.106066 0.206066
v -1.900000 0.083336 0.224720
v -1.900000 0.057403 0.238582
v -1.900000 0.029264 0.247118
v -1.900000 0.000000 0.250000
v -1.900000 -0.029264 0.247118
v -1.900000 -0.057403 0.238582
v -1.900000 -0.083336 0.224720
v -1.900000 -0.106066 0.206066
v -1.900000 -0.124720 0.183336
v -1.900000 -0.138582 0.157403
v -1.900000 -0.147118 0.129264
v -1.900000 -0.150000 0.100000
v -1.900000 -0.147118 0.070736
v -1.900000 -0.138582 0.042597
v -1.900000 -0.124720 0.016664
v -1.900000 -0.106066 -0.006066
v -1.900000 -0.083336 -0.024720
v -1.900000 -0.057403 -0.038582
v -1.900000 -0.029264 -0.047118
v -2.200000 -0.000000 0.100000
vn -0.4455 0.0878 -0.8910
vn -0.4455 0.2599 -0.8567
vn -0.4455 0.4220 -0.7896
vn -0.4455 0.5680 -0.6921
vn -0.4455 0.6921 -0.5680
vn -0.4455 0.7896 -0.4220
vn -0.4455 0.8567 -0.2599
vn -0.4455 0.8910 -0.0878
vn -0.4455 0.8910 0.0878
vn -0.4455 0.8567 0.2599
vn -0.4455 0.7896 0.4220
vn -0.4455 0.6921 0.5680
vn -0.4455 0.5680 0.6921
vn -0.4455 0.4220 0.7896
vn -0.4455 0.2599 0.8567
vn -0.4455 0.0878 0.8910
vn -0.4455 -0.0878 0.8910
vn -0.4455 -0.2599 0.8567
vn -0.4455 -0.4220 0.7896
vn -0.4455 -0.5680 0.6921
vn -0.4455 -0.6921 0.5680
vn -0.4455 -0.7896 0.4220
vn -0.4455 -0.8567 0.2599
vn -0.4455 -0.8910 0.0878
vn -0.4455 -0.8910 -0.0878
vn -0.4455 -0.8567 -0.2599
vn -0.4455 -0.7896 -0.4220
vn -0.4455 -0.6921 -0.5680
vn -0.4455 -0.5680 -0.6921
vn -0.4455 -0.4220 -0.7896
vn 1.0000 -0.0000 -0.0000
vn -0.4455 -0.2599 -0.8567
vn -0.4455 -0.0878 -0.8910
vt 0.250000 0.490000
vt 0.250000 0.250000
vt 0.296822 0.485388
vt 0.341844 0.471731
vt 0.383337 0.449553
vt 0.419706 0.419706
vt 0.449553 0.383337
vt 0.471731 0.341844
vt 0.485388 0.296822
vt 0.490000 0.250000
vt 0.485388 0.203178
vt 0.471731 0.158156
vt 0.449553 0.116663
vt 0.419706 0.080294
vt 0.383337 0.050447
vt 0.341844 0.028269
vt 0.296822 0.014612
vt 0.250000 0.010000
vt 0.203178 0.014612
vt 0.158156 0.028269
vt 0.116663 0.050447
vt 0.080294 0.080294
vt 0.050447 0.116663
vt 0.028269 0.158156
vt 0.014612 0.203178
vt 0.010000 0.250000
vt 0.014612 0.296822
vt 0.028269 0.341844
vt 0.050447 0.383337
vt 0.080294 0.419706
vt 0.116663 0.449553
vt 0.158156 0.471731
vt 0.750000 0.490000
vt 0.796822 0.485388
vt 0.841844 0.471731
vt 0.883337 0.449553
vt 0.919706 0.419706
vt 0.949553 0.383337
vt 0.971731 0.341844
vt 0.985388 0.296822
vt 0.990000 0.250000
vt 0.985388 0.203178
vt 0.971731 0.158156
vt 0.949553 0.116663
vt 0.919706 0.080294
vt 0.883337 0.050447
vt 0.841844 0.028269
vt 0.796822 0.014612
vt 0.750000 0.010000
vt 0.703178 0.014612
vt 0.658156 0.028269
vt 0.616663 0.050447
vt 0.580294 0.080294
vt 0.550447 0.116663
vt 0.528269 0.158156
vt 0.514612 0.203178
vt 0.510000 0.250000
vt 0.514612 0.296822
vt 0.528269 0.341844
vt 0.550447 0.383337
vt 0.580294 0.419706
vt 0.616663 0.449553
vt 0.658156 0.471731
vt 0.703178 0.485388
vt 0.203178 0.485388
s 0
f 91/173/85 123/174/85 92/175/85
f 92/175/86 123/174/86 93/176/86
f 93/176/87 123/174/87 94/177/87
f 94/177/88 123/174/88 95/178/88
f 95/178/89 123/174/89 96/179/89
f 96/179/90 123/174/90 97/180/90
f 97/180/91 123/174/91 98/181/91
f 98/181/92 123/174/92 99/182/92
f 99/182/93 123/174/93 100/183/93
f 100/183/94 123/174/94 101/184/94
f 101/184/95 123/174/95 102/185/95
f 102/185/96 123/174/96 103/186/96
f 103/186/97 123/174/97 104/187/97
f 104/187/98 123/174/98 105/188/98
f 105/188/99 123/174/99 106/189/99
f 106/189/100 123/174/100 107/190/100
f 107/190/101 123/174/101 108/191/101
f 108/191/102 123/174/102 109/192/102
f 109/192/103 123/174/103 110/193/103
f 110/193/104 123/174/104 111/194/104
f 111/194/105 123/174/105 112/195/105
f 112/195/106 123/174/106 113/196/106
f 113/196/107 123/174/107 114/197/107
f 114/197/108 123/174/108 115/198/108
f 115/198/109 123/174/109 116/199/109
f 116/199/110 123/174/110 117/200/110
f 117/200/111 123/174/111 118/201/111
f 118/201/112 123/174/112 119/202/112
f 119/202/113 123/174/113 120/203/113
f 120/203/114 123/174/114 121/204/114
f 91/205/115 92/206/115 93/207/115 94/208/115 95/209/115 96/210/115 97/211/115 98/212/115 99/213/115 100/214/115 101/215/115 102/216/115 103/217/115 104/218/115 105/219/115 106/220/115 107/221/115 108/222/115 109/223/115 110/224/115 111/225/115 112/226/115 113/227/115 114/228/115 115/229/115 116/230/115 117/231/115 118/232/115 119/233/115 120/234/115 121/235/115 122/236/115
f 121/204/116 123/174/116 122/237/116
f 122/237/117 123/174/117 91/173/117
